<svg width="240" height="278" viewBox="0 0 240 278" fill="none" xmlns="http://www.w3.org/2000/svg">
<path d="M237.497 181.661C234.94 185.206 232.295 188.578 229.573 191.784L235.452 189.998C236.23 187.258 236.913 184.477 237.497 181.661Z" fill="#079664"/>
<path d="M183 247.876L176.5 263.055C183.839 259.131 190.722 254.466 197.05 249.161L183 247.876Z" fill="#079664"/>
<path d="M221 214.661L220 223.517C222.116 220.335 224.083 217.047 225.893 213.661L221 214.661Z" fill="#079664"/>
<path d="M148 266.783L156.5 271.509C156.79 271.415 158.493 267.99 160.817 263.055L152.232 257.493L148 266.783Z" fill="#0CB77B"/>
<path fill-rule="evenodd" clip-rule="evenodd" d="M114 247.876L148 266.783L152.232 257.493L160.817 263.055C164.897 254.386 170.889 241.059 174.5 232.935C170.038 234.92 165.531 236.686 161 238.248L152.232 257.493L133.5 245.357C126.941 246.531 120.42 247.354 114 247.876Z" fill="#079664"/>
<path fill-rule="evenodd" clip-rule="evenodd" d="M174.5 232.935C175.441 232.935 188.74 235.537 199.5 237.68L201.564 229.724L209.281 231.127L214.5 207.229C211.55 209.855 208.538 212.33 205.473 214.661L201.564 229.724L186.5 226.984C182.548 229.157 178.543 231.136 174.5 232.935Z" fill="#079664"/>
<path d="M199.5 237.68C202.463 238.27 205.233 238.825 207.5 239.282L209.281 231.127L201.564 229.724L199.5 237.68Z" fill="#0CB77B"/>
<path fill-rule="evenodd" clip-rule="evenodd" d="M214.5 207.229L226.5 206.379L226.538 202.901L229.573 202.661V191.784C228.599 192.931 227.615 194.056 226.622 195.161L226.538 202.901L218.5 203.538C217.18 204.8 215.846 206.03 214.5 207.229Z" fill="#079664"/>
<path d="M226.5 206.379L229.573 206.161V202.661L226.538 202.901L226.5 206.379Z" fill="#0CB77B"/>
<path d="M32.5 239.282C54.3909 262.598 85.4947 277.161 120 277.161C132.727 277.161 144.99 275.18 156.5 271.509L148 266.783L114 247.876C81.4602 250.523 51.5326 245.442 32.5 239.282Z" fill="#05573A"/>
<path d="M156.5 271.509C160.437 270.254 164.285 268.8 168.034 267.161L179.5 241.161L202.121 244.661C203.97 242.925 205.764 241.131 207.5 239.282C205.233 238.825 202.463 238.27 199.5 237.68C188.74 235.537 175.441 232.935 174.5 232.935C170.889 241.059 164.897 254.386 160.817 263.055C158.493 267.99 156.79 271.415 156.5 271.509Z" fill="#05573A"/>
<path d="M207.5 239.282C209.952 236.671 212.288 233.95 214.5 231.127L218 211.661L227.691 210.161C228.342 208.841 228.969 207.508 229.573 206.161L226.5 206.379L214.5 207.229L209.281 231.127L207.5 239.282Z" fill="#05573A"/>
<path d="M235.452 189.998L229.573 191.784V202.661V206.161C230.431 204.244 231.241 202.301 232 200.332V193.161L234.75 192.378C234.992 191.588 235.226 190.794 235.452 189.998Z" fill="#05573A"/>
<path d="M140.5 243.97L150 249.661L154.5 240.348C149.841 241.753 145.166 242.955 140.5 243.97Z" fill="#05573A"/>
<path d="M193.069 223.161C193.414 222.948 197.167 223.739 199 224.161L200.5 218.287C198.052 219.997 195.573 221.62 193.069 223.161Z" fill="#05573A"/>
<path d="M221.429 200.661H224.5L224.792 197.161C223.682 198.353 222.561 199.519 221.429 200.661Z" fill="#05573A"/>
<path d="M100.232 46.8994C100.329 46.8821 100.426 46.8649 100.524 46.8478C100.436 46.7586 100.348 46.6688 100.261 46.5783L100.232 46.8994Z" fill="#05573A"/>
<path d="M135.814 46.2691C138.182 44.2802 140.169 41.8514 141.647 39.1086C134.647 37.8332 127.434 37.1652 120.066 37.1612V45.1612C125.412 45.1643 130.669 45.5419 135.814 46.2691Z" fill="#05573A"/>
<path fill-rule="evenodd" clip-rule="evenodd" d="M144.714 39.709C143.846 41.4592 142.796 43.1038 141.59 44.6182L141.566 44.6487L141.593 44.6476C143.298 44.5773 151.765 44.2344 155.877 44.1845C155.382 43.5915 154.794 42.8745 154.158 42.0927C151.061 41.1746 147.911 40.3782 144.714 39.709ZM140.936 57.3228C140.781 55.9793 140.621 54.5329 140.471 53.1459C140.177 50.4343 139.92 47.9503 139.813 46.9083L139.794 46.7246L139.788 46.6652L139.727 46.7274C139.681 46.7746 139.635 46.8216 139.589 46.8684C137.585 48.8875 135.271 50.5975 132.723 51.9206C131.548 52.5311 130.322 53.0593 129.055 53.4974L129.036 53.5041L129.048 53.5112C129.679 53.8762 131.378 54.8603 133.389 56.0365C136.088 57.6145 139.351 59.5385 141.355 60.7774C141.229 59.819 141.085 58.6188 140.936 57.3228ZM125.825 51.3193C129.562 50.4192 132.965 48.6627 135.814 46.2691C130.669 45.5419 125.412 45.1643 120.066 45.1612V37.1612L120 37.1612C112.652 37.1612 105.458 37.8217 98.474 39.0866C98.3571 38.8692 98.2433 38.6498 98.1329 38.4285L97.4596 36.9601C97.6682 37.4581 97.8929 37.9478 98.1329 38.4285L98.4376 39.0932L98.474 39.0866C99.9496 41.8308 101.933 44.2614 104.299 46.2525C104.955 46.8049 105.641 47.3235 106.353 47.8055C106.684 48.0294 107.021 48.2454 107.363 48.4532C109.48 49.7399 111.808 50.7146 114.283 51.3135C116.138 51.7622 118.074 52 120.066 52C122.05 52 123.978 51.7643 125.825 51.3193ZM111.016 53.436L110.973 53.4611C109.734 53.0271 108.536 52.5069 107.385 51.9077C104.838 50.5819 102.525 48.8693 100.524 46.8478C100.426 46.8649 100.329 46.8821 100.232 46.8994C100.132 47.9999 99.9077 50.4529 99.6504 53.1221C99.5171 54.505 99.375 55.9458 99.2366 57.2868C99.1001 58.6105 98.9673 59.8368 98.8505 60.8138C100.822 59.564 104.027 57.6223 106.682 56.0271C108.673 54.8309 110.354 53.8296 110.973 53.4611L111.041 53.4848L111.016 53.436ZM95.4059 39.6839C96.2423 41.3734 97.2471 42.9647 98.3986 44.4358C96.7253 44.3791 88.309 44.1001 84.2214 44.0776C84.6875 43.5122 85.2357 42.8353 85.8279 42.0969C88.9687 41.1655 92.1633 40.3592 95.4059 39.6839ZM126.437 54.2583L126.416 54.3003C126.301 54.5299 126.125 54.883 125.902 55.33C124.589 57.9633 121.663 63.8575 120.201 67C118.676 63.854 115.62 57.9501 114.254 55.3211C114.01 54.8513 113.82 54.486 113.702 54.2598C115.745 54.7438 117.876 55 120.066 55C122.236 55 124.346 54.7488 126.371 54.274L126.437 54.2583ZM97.6004 53.544C97.4625 54.9647 97.3176 56.4176 97.1793 57.7369C52.1115 68.0912 18.5 108.451 18.5 156.661C18.5 176.56 24.2264 195.122 34.1211 210.788C33.4631 212.078 32.7192 213.376 31.8627 214.666C20.8877 198.023 14.5 178.088 14.5 156.661C14.5 106.081 50.0941 63.815 97.6004 53.544Z" fill="#05573A"/>
<path d="M32.5 239.282L33.4199 239.515C40.7468 241.337 49.7704 242.786 60.0218 243.465C55.9754 240.664 52.1344 237.587 48.5259 234.262C44.2534 233.662 40.32 232.925 36.7803 232.096C34.7199 229.735 32.0493 226.377 28.8816 222.183C28.4691 221.637 28.0482 221.077 27.6191 220.503C27.5379 220.385 27.4569 220.266 27.3761 220.148C15.1481 202.204 8 180.529 8 157.161C8 154.615 8.08509 152.09 8.25195 149.588C8.33881 148.286 8.44721 146.989 8.57812 145.7C11.0871 120.994 21.6279 98.6589 37.5664 81.3399C53.3583 64.1804 74.4218 51.9723 98.1886 47.2828C98.2158 46.986 98.2385 46.7376 98.2557 46.5471L98.266 46.432L98.1893 46.4293L97.9614 46.4218L97.6753 46.4124L97.395 46.4033L97.3492 46.4018L97.006 46.3907C96.0066 46.3582 94.6262 46.3147 93.1048 46.2703C90.0543 46.1813 86.4592 46.0903 84.2104 46.0779L80 46.0542L82.3699 43.1798C62.7448 49.6553 45.3599 61.0579 31.6797 75.9229L30.8838 76.796C14.2596 95.2187 3.26673 118.822 0.619141 144.892C0.478911 146.273 0.362538 147.661 0.269531 149.055L0.207031 150.061C0.0699386 152.41 0 154.777 0 157.161C0 182.41 7.79792 205.839 21.1172 225.168L22.7061 227.281C26.3399 232.083 29.4505 235.958 31.8135 238.545L32.5 239.282Z" fill="#05573A"/>
<path d="M67.9623 243.825C110.326 244.874 169.648 232.651 217.907 183.524C219.232 178.684 220.208 173.699 220.805 168.599C220.357 169.116 219.907 169.629 219.456 170.138C194.288 198.556 165.369 215.585 137.396 225.168C126.002 229.072 114.764 231.74 104 233.439C86.0441 236.273 69.4074 236.41 55.5632 235.088C59.4634 238.296 63.607 241.219 67.9623 243.825Z" fill="#05573A"/>
<path d="M36.7455 214.736C35.841 213.442 34.9659 212.126 34.1211 210.788C33.4631 212.078 32.7192 213.376 31.8627 214.666C32.5187 215.661 33.1911 216.644 33.8795 217.615C38.1707 223.667 43.0839 229.247 48.5259 234.262C50.7799 234.578 53.1284 234.855 55.5632 235.088C48.4045 229.199 42.0662 222.35 36.7455 214.736Z" fill="#05573A"/>
<path d="M60.0218 243.465C62.5938 243.635 65.2431 243.757 67.9623 243.825C63.607 241.219 59.4634 238.296 55.5632 235.088C53.1284 234.855 50.7799 234.578 48.5259 234.262C52.1344 237.587 55.9754 240.664 60.0218 243.465Z" fill="#05573A"/>
<path d="M231.446 168.369C234.355 164.793 237.209 161.059 240 157.161C240 104.039 205.481 58.9781 157.65 43.1864L160.112 46.133L155.901 46.184C153.636 46.2115 150.012 46.3297 146.937 46.4417C145.403 46.4976 144.012 46.552 143.004 46.5921C142.501 46.6122 142.093 46.6284 141.811 46.64L141.796 46.6406C141.813 46.8126 141.836 47.03 141.862 47.286L141.863 47.294C192.445 57.3031 230.777 101.371 231.97 154.605C229.781 157.589 227.556 160.47 225.298 163.25C224.994 168.172 224.353 173.003 223.398 177.72C223.501 177.607 223.603 177.495 223.706 177.382L223.916 177.15L225.444 175.441C226.963 173.727 228.469 171.973 229.96 170.178L231.446 168.369Z" fill="#05573A"/>
<path d="M143.003 57.7789C187.979 68.1999 221.5 108.516 221.5 156.661C221.5 160.7 221.264 164.683 220.805 168.599C222.297 166.881 223.775 165.122 225.239 163.321L225.298 163.25C225.432 161.071 225.5 158.874 225.5 156.661C225.5 106.127 189.971 63.8919 142.529 53.5721C142.685 54.9994 142.848 56.4586 143.003 57.7789Z" fill="#05573A"/>
<path d="M217.907 183.524C219.754 181.644 221.585 179.71 223.398 177.72C224.353 173.003 224.994 168.172 225.298 163.25L225.239 163.321C223.775 165.122 222.297 166.881 220.805 168.599C220.208 173.699 219.232 178.684 217.907 183.524Z" fill="#05573A"/>
<circle cx="120.5" cy="159.161" r="76" fill="#05573A"/>
<path fill-rule="evenodd" clip-rule="evenodd" d="M120.482 159.051L62.5136 178.774C45.8434 173.451 29.3035 155.667 34.4586 139.515C35.0144 139.089 42.8879 136.675 46.7551 135.521L120.482 159.051Z" fill="#FFB516"/>
<path d="M83.5019 109.161C66.7738 103.742 43.8993 109.934 38.9528 125.433C39.1662 126.08 44.2433 132.428 46.7551 135.521L120.482 159.051L109.816 144.661L83.5019 109.161Z" fill="#FFCC16"/>
<path fill-rule="evenodd" clip-rule="evenodd" d="M83.5019 109.161C83.5019 91.6611 95.9819 71.1611 112.938 71.1611C113.513 71.5612 118.207 78.3278 120.482 81.6612L120.482 159.051L109.816 144.661L83.5019 109.161Z" fill="#FFD413"/>
<path d="M155.982 109.161C155.982 91.6611 143.989 71.1611 127.72 71.1611C127.168 71.5612 122.665 78.3278 120.482 81.6612L120.482 159.051L130.721 144.661L155.982 109.161Z" fill="#FFCC16"/>
<path fill-rule="evenodd" clip-rule="evenodd" d="M130.721 144.661L155.982 109.161C172.618 103.732 196.433 108.492 201.694 124.612C201.492 125.282 196.515 131.844 194.053 135.041L120.482 159.051L130.721 144.661Z" fill="#FFEC95"/>
<path d="M178.924 177.321C195.56 171.892 211.328 154.13 206.28 138.664C205.729 138.264 197.899 136.082 194.053 135.041L120.482 159.051L178.924 177.321Z" fill="#FFCC16"/>
<path fill-rule="evenodd" clip-rule="evenodd" d="M120.482 159.051L178.924 177.321C189.247 191.452 192.11 215.569 178.418 225.571C177.718 225.587 169.936 222.892 166.133 221.543L120.482 159.051Z" fill="#FFD413"/>
<path d="M121.245 220.279C131.568 234.409 153.346 243.888 166.482 234.291C166.692 233.643 166.337 225.522 166.133 221.543L120.482 159.051L121.245 220.279Z" fill="#FFCC16"/>
<path fill-rule="evenodd" clip-rule="evenodd" d="M120.482 159.051L121.245 220.279C111.015 234.477 88.9761 244.68 75.2192 234.768C74.9868 234.107 75.1345 225.873 75.2374 221.839L120.482 159.051Z" fill="#FFDA35"/>
<path d="M62.5125 178.774C52.2818 192.972 50.0276 216.615 63.2268 226.126C63.908 226.124 71.5177 223.267 75.2374 221.839L120.482 159.051L62.5159 178.774L62.5136 178.774L62.5125 178.774Z" fill="#FFEB95"/>
<path d="M113.565 69.1611L114.081 69.5195C114.315 69.6825 114.497 69.8805 114.565 69.9551C114.669 70.0675 114.777 70.1955 114.883 70.3252C115.097 70.5869 115.355 70.9228 115.64 71.3027C116.212 72.0665 116.936 73.0705 117.704 74.1543C118.602 75.4206 119.569 76.8124 120.447 78.083C121.284 76.8209 122.205 75.4423 123.059 74.1865C123.796 73.1026 124.49 72.0978 125.039 71.334C125.312 70.9541 125.56 70.6183 125.766 70.3564C125.867 70.2267 125.972 70.0983 126.071 69.9854C126.136 69.9119 126.314 69.7099 126.546 69.542L127.07 69.1611H127.72C136.754 69.1611 144.357 74.8455 149.6 82.4648C154.354 89.3742 157.365 98.1294 157.896 106.521C166.06 104.411 175.456 104.499 183.662 106.885C192.717 109.517 200.685 115.076 203.595 123.991L203.79 124.588L203.609 125.188C203.527 125.461 203.395 125.696 203.346 125.784C203.271 125.917 203.182 126.06 203.092 126.201C202.909 126.486 202.67 126.836 202.397 127.225C201.849 128.005 201.119 129.005 200.327 130.071C199.402 131.317 198.379 132.669 197.443 133.898C198.903 134.303 200.499 134.75 201.958 135.172C203.217 135.536 204.387 135.885 205.283 136.17C205.729 136.312 206.126 136.443 206.438 136.557C206.593 136.613 206.748 136.673 206.887 136.732C206.954 136.762 207.11 136.828 207.281 136.931L207.455 137.045L207.979 137.427L208.182 138.044C210.984 146.632 207.939 155.623 202.322 162.971C197.229 169.634 189.84 175.214 182.027 178.322C186.565 185.428 189.398 194.388 189.676 202.93C189.983 212.355 187.171 221.654 179.598 227.187L179.091 227.557L178.464 227.571C178.179 227.578 177.916 227.525 177.816 227.505C177.667 227.475 177.503 227.436 177.341 227.394C177.014 227.308 176.607 227.19 176.153 227.051C175.241 226.772 174.063 226.388 172.804 225.966C171.332 225.473 169.729 224.92 168.271 224.412C168.339 225.925 168.41 227.581 168.461 229.099C168.505 230.408 168.538 231.629 168.545 232.569C168.549 233.037 168.545 233.455 168.534 233.788C168.529 233.953 168.521 234.119 168.507 234.269C168.498 234.366 168.473 234.634 168.386 234.905L168.187 235.523L167.662 235.906C160.367 241.235 150.876 241.13 142.147 238.07C134.232 235.296 126.635 230.002 121.256 223.54C115.908 230.058 108.27 235.53 100.236 238.444C91.3714 241.66 81.6587 241.873 74.0498 236.391L73.541 236.023L73.333 235.432C73.2383 235.162 73.2064 234.896 73.1943 234.795C73.1762 234.643 73.1625 234.477 73.1523 234.31C73.1318 233.972 73.1192 233.548 73.1104 233.073C73.0926 232.119 73.0921 230.881 73.1025 229.553C73.1147 228.001 73.1427 226.306 73.1729 224.762C71.7561 225.296 70.2041 225.877 68.7773 226.396C67.5457 226.845 66.3949 227.254 65.5029 227.553C65.0593 227.701 64.6615 227.828 64.3418 227.921C64.1834 227.967 64.0238 228.011 63.877 228.044C63.7814 228.066 63.5193 228.125 63.2334 228.126L62.584 228.128L62.0576 227.749C54.7278 222.467 51.8834 213.411 52.084 204.164C52.2659 195.778 54.9403 186.914 59.415 179.795C51.5604 176.733 43.9889 171.17 38.7256 164.438C32.9174 157.008 29.7024 147.84 32.5537 138.906L32.7441 138.309L33.2422 137.927C33.4686 137.753 33.7117 137.64 33.8037 137.598C33.9422 137.533 34.0972 137.47 34.2529 137.408C34.5673 137.284 34.9664 137.139 35.415 136.983C36.3167 136.671 37.4937 136.287 38.7598 135.885C40.239 135.415 41.8584 134.915 43.3359 134.465C42.3883 133.284 41.3546 131.988 40.418 130.793C39.6095 129.761 38.8635 128.794 38.3027 128.039C38.0238 127.663 37.7788 127.325 37.5918 127.05C37.4991 126.913 37.4093 126.775 37.332 126.646C37.2817 126.561 37.1433 126.331 37.0537 126.06L36.8506 125.443L37.0479 124.825C39.7822 116.258 47.3876 110.484 56.1768 107.556C64.1536 104.898 73.3857 104.474 81.5889 106.533C82.1397 98.1208 85.2803 89.349 90.2354 82.4336C95.7026 74.8033 103.598 69.1611 112.938 69.1611H113.565Z" stroke="#05573A" stroke-width="4"/>
<path d="M125.429 118.856C125.429 121.617 123.19 123.856 120.429 123.856C117.667 123.856 115.429 121.617 115.429 118.856C115.429 116.095 117.667 113.856 120.429 113.856C123.19 113.856 125.429 116.095 125.429 118.856Z" fill="#FFF4BB"/>
<path d="M125.429 118.856C125.429 116.095 123.19 113.856 120.429 113.856C117.667 113.856 115.429 116.095 115.429 118.856C115.429 121.531 117.53 123.715 120.172 123.849L120.429 123.856C123.19 123.856 125.429 121.617 125.429 118.856ZM128.429 118.856C128.429 122.761 125.63 126.01 121.929 126.712V151.856H118.929V126.712C115.228 126.01 112.429 122.761 112.429 118.856C112.429 114.438 116.01 110.856 120.429 110.856C124.847 110.856 128.429 114.438 128.429 118.856Z" fill="#FFF4BB"/>
<path d="M115.149 151.856L120.482 159.051L125.602 151.856H121.929H120.375H118.929H115.149Z" fill="#FFF4BB"/>
<path d="M160.21 151.19C157.587 152.053 154.761 150.626 153.898 148.003C153.035 145.379 154.462 142.553 157.085 141.691C159.708 140.828 162.534 142.255 163.397 144.878C164.26 147.501 162.833 150.327 160.21 151.19Z" fill="#FFF7D2"/>
<path d="M160.21 151.19C162.833 150.327 164.26 147.501 163.397 144.878C162.534 142.255 159.708 140.828 157.085 141.691C154.544 142.527 153.125 145.205 153.824 147.757L153.898 148.003C154.761 150.626 157.587 152.053 160.21 151.19ZM161.147 154.04C157.437 155.26 153.477 153.616 151.653 150.32L127.769 158.177L126.831 155.327L150.716 147.47C150.226 143.735 152.438 140.061 156.148 138.841C160.345 137.46 164.866 139.743 166.247 143.94C167.627 148.138 165.344 152.659 161.147 154.04Z" fill="#FFF7D2"/>
<path d="M125.65 151.736L120.482 159.051L128.916 161.666L127.769 158.177L127.283 156.701L126.831 155.327L125.65 151.736Z" fill="#FFF7D2"/>
<path d="M140.363 194.333C138.724 192.111 139.196 188.98 141.419 187.341C143.641 185.702 146.771 186.174 148.41 188.396C150.05 190.619 149.577 193.749 147.355 195.388C145.133 197.028 142.002 196.555 140.363 194.333Z" fill="#FFF4BB"/>
<path d="M140.363 194.333C142.002 196.555 145.133 197.028 147.355 195.388C149.577 193.749 150.05 190.619 148.41 188.396C146.822 186.244 143.835 185.733 141.629 187.194L141.419 187.341C139.196 188.98 138.724 192.111 140.363 194.333ZM137.949 196.114C135.63 192.971 135.954 188.695 138.516 185.933L123.589 165.699L126.003 163.918L140.93 184.152C144.325 182.52 148.506 183.473 150.825 186.615C153.447 190.171 152.691 195.18 149.136 197.802C145.58 200.425 140.572 199.669 137.949 196.114Z" fill="#FFF4BB"/>
<path d="M129.045 161.675L120.482 159.051L120.633 167.88L123.589 165.699L124.839 164.777L126.003 163.918L129.045 161.675Z" fill="#FFF4BB"/>
<path d="M93.1789 188.961C94.7776 186.709 97.8988 186.18 100.15 187.779C102.402 189.377 102.931 192.499 101.333 194.75C99.7341 197.002 96.6128 197.531 94.3612 195.932C92.1096 194.334 91.5803 191.213 93.1789 188.961Z" fill="#FFF7D1"/>
<path d="M93.1789 188.961C91.5803 191.213 92.1096 194.334 94.3612 195.932C96.6128 197.531 99.7341 197.002 101.333 194.75C102.882 192.569 102.433 189.571 100.356 187.933L100.15 187.779C97.8988 186.18 94.7776 186.709 93.1789 188.961ZM90.7328 187.224C92.9937 184.04 97.1568 183.011 100.581 184.581L115.137 164.08L117.583 165.816L103.027 186.318C105.638 189.033 106.04 193.303 103.779 196.487C101.221 200.09 96.227 200.936 92.6244 198.379C89.0218 195.821 88.1749 190.827 90.7328 187.224Z" fill="#FFF7D1"/>
<path d="M120.665 168.005L120.482 159.051L112.142 161.953L115.137 164.08L116.404 164.979L117.583 165.816L120.665 168.005Z" fill="#FFF7D1"/>
<path d="M83.7785 141.936C86.405 142.789 87.843 145.609 86.9905 148.235C86.1379 150.862 83.3177 152.3 80.6912 151.448C78.0646 150.595 76.6265 147.775 77.4791 145.148C78.3316 142.522 81.152 141.083 83.7785 141.936Z" fill="#FFEEAB"/>
<path d="M83.7785 141.936C81.152 141.083 78.3316 142.522 77.4791 145.148C76.6265 147.775 78.0646 150.595 80.6912 151.448C83.2357 152.273 85.9619 150.949 86.9048 148.478L86.9905 148.235C87.843 145.609 86.405 142.789 83.7785 141.936ZM84.7047 139.083C88.4194 140.288 90.6452 143.954 90.1706 147.691L114.086 155.453L113.16 158.307L89.2444 150.544C87.4337 153.847 83.4796 155.507 79.7649 154.301C75.5625 152.937 73.2616 148.424 74.6257 144.222C75.9897 140.019 80.5023 137.718 84.7047 139.083Z" fill="#FFEEAB"/>
<path d="M111.993 161.902L120.483 159.051L115.22 151.96L114.086 155.453L113.606 156.931L113.16 158.307L111.993 161.902Z" fill="#FFEEAB"/>
<path d="M124.63 241.811C130.282 243.985 140.073 252.5 134.03 269.161C120.6 261.031 122.168 247.54 124.63 241.811Z" fill="#079664"/>
<path d="M120.998 242.637C121.855 240.921 122.325 239.69 122.878 238.298C123.158 237.594 123.358 235.914 123.358 235.161M120.998 242.637C120.026 243.516 116.907 244.972 113.645 244.571M120.998 242.637C120.075 244.487 117.758 247.67 116.5 249.661M122.878 238.298C123.383 239.328 123.914 240.161 124.63 241.811M124.63 241.811C130.282 243.985 140.073 252.5 134.03 269.161C120.6 261.031 122.168 247.54 124.63 241.811Z" stroke="#05573A" stroke-width="2"/>
<path d="M116.5 249.661L117.394 250.108L115.654 249.127L116.5 249.661ZM116.5 249.661L115.606 249.214C115.232 249.96 115.19 250.814 115.309 251.627C115.429 252.448 115.724 253.309 116.121 254.143C116.915 255.808 118.18 257.499 119.575 258.742L120.24 257.995L120.905 257.249C119.71 256.183 118.606 254.707 117.926 253.282C117.588 252.571 117.371 251.906 117.288 251.338C117.204 250.762 117.268 250.362 117.394 250.108L116.5 249.661ZM116.5 249.661L115.654 249.127C114.9 250.322 115.006 250.046 114.042 251.342L114.844 251.939L115.647 252.536C116.482 251.411 116.544 251.465 117.346 250.195L116.5 249.661ZM114.844 251.939L114.288 251.108C113.418 251.69 110.237 253.021 105.431 252.731L105.371 253.729L105.311 254.728C110.482 255.04 114.112 253.632 115.4 252.77L114.844 251.939ZM114.844 251.939L114.042 251.342C113.218 252.45 112.345 253.534 111.425 254.571L112.173 255.235L112.922 255.898C113.884 254.814 114.792 253.685 115.647 252.536L114.844 251.939ZM112.173 255.235L111.425 254.571C109.051 257.248 106.377 259.601 103.439 261.265L103.932 262.135L104.425 263.005C107.606 261.204 110.446 258.69 112.922 255.898L112.173 255.235ZM112.173 255.235L111.221 254.929C110.842 256.112 110.258 259.105 111.003 261.777L111.966 261.508L112.929 261.239C112.331 259.093 112.807 256.532 113.126 255.54L112.173 255.235Z" fill="#079664"/>
<path d="M125.872 241.82C125.245 242.047 124.619 242.275 123.992 242.502C124.112 242.785 124.233 243.072 124.353 243.359C126.486 248.518 128.443 253.781 129.732 259.248C129.801 259.551 129.869 259.858 129.932 260.161C129.902 259.853 129.867 259.54 129.83 259.23C129.13 253.641 127.734 248.144 126.143 242.722C126.054 242.42 125.962 242.118 125.872 241.82Z" fill="#05573A"/>
<ellipse cx="102.932" cy="262.661" rx="4" ry="4.5" fill="#F9DE8B"/>
<circle cx="111.918" cy="262.846" r="3.38633" transform="rotate(-75.0006 111.918 262.846)" fill="#F9DE8B"/>
<circle cx="103.967" cy="253.676" r="3.87365" transform="rotate(41.3591 103.967 253.676)" fill="#F9DE8B"/>
<circle cx="110.907" cy="244.514" r="3.87365" transform="rotate(66.7566 110.907 244.514)" fill="#08563C"/>
<circle cx="119.891" cy="258.377" r="4.04748" transform="rotate(-97.7682 119.891 258.377)" fill="#F9DE8B"/>
<ellipse cx="101.345" cy="264.026" rx="0.623047" ry="1.02007" transform="rotate(-40.5976 101.345 264.026)" fill="#095539"/>
<ellipse cx="112.813" cy="264.859" rx="0.55795" ry="0.913494" transform="rotate(-115.598 112.813 264.859)" fill="#095539"/>
<ellipse cx="101.45" cy="253.57" rx="0.638245" ry="1.04496" transform="rotate(0.761508 101.45 253.57)" fill="#095539"/>
<ellipse cx="108.679" cy="243.339" rx="0.638245" ry="1.04496" transform="rotate(26.159 108.679 243.339)" fill="#F9DE8B"/>
<ellipse cx="121.808" cy="260.182" rx="0.666886" ry="1.09185" transform="rotate(-138.366 121.808 260.182)" fill="#095539"/>
</svg>
